#!OML:ASF F:\VICON\USERDATA\INSTALL\rory3\rory3.ASF
:FULLY-SPECIFIED
:DEGREES
626
root -0.17231 18.01 3.24731 -5.13131 22.0781 -0.694593
lowerback 10.5476 -4.17142 -3.93932
upperback 0.850729 -5.90008 1.99757
thorax -4.39198 -2.83079 5.10836
lowerneck 4.38652 -22.4919 -17.208
upperneck 15.1734 -35.908 23.8681
head 12.052 -16.9272 5.59314
rclavicle 4.03906e-014 -2.8625e-014
rhumerus -39.981 38.4258 -99.0323
rradius 91.1913
rwrist -4.457
rhand -17.3244 7.49774
rfingers 7.12502
rthumb 8.92231 -22.2936
lclavicle 4.03906e-014 -2.8625e-014
lhumerus -40.4005 -27.6019 103.694
lradius 88.8088
lwrist -3.95338
lhand -13.1095 36.4648
lfingers 7.12502
lthumb 12.9876 66.0406
rfemur -6.75458 6.38349 22.6182
rtibia 26.7363
rfoot -9.99882 1.96036
rtoes 3.51031
lfemur -5.85714 4.52845 -14.0545
ltibia 51.0207
lfoot -6.06944 -7.48934
ltoes -15.7014
627
root -0.191337 18.0089 3.16062 -5.08428 22.1562 -0.55749
lowerback 10.531 -4.3446 -4.16091
upperback 0.838647 -6.15411 2.04726
thorax -4.33818 -2.9545 5.31259
lowerneck 4.77063 -22.5181 -17.2176
upperneck 15.1127 -36.0359 24.0843
head 12.0509 -17.0133 5.6775
rclavicle 6.74004e-014 -4.77083e-015
rhumerus -39.6577 38.4978 -98.6577
rradius 91.2377
rwrist -4.11372
rhand -17.1535 7.59015
rfingers 7.12502
rthumb 9.08727 -22.1941
lclavicle 6.74004e-014 -4.77083e-015
lhumerus -40.203 -27.5791 103.917
lradius 88.664
lwrist -3.73259
lhand -13.1036 37.0913
lfingers 7.12502
lthumb 12.9933 66.6666
rfemur -7.12928 6.32394 22.3837
rtibia 26.8567
rfoot -9.80136 1.98738
rtoes 3.49113
lfemur -4.94727 4.06714 -14.3919
ltibia 50.5624
lfoot -6.13213 -8.2514
ltoes -15.1916
628
root -0.2119 18.009 3.07535 -5.06683 22.1615 -0.512519
lowerback 10.5225 -4.54636 -4.37026
upperback 0.813114 -6.44331 2.13929
thorax -4.29262 -3.09535 5.55925
lowerneck 5.03582 -22.5253 -17.0823
upperneck 15.2193 -36.0988 24.0693
head 12.0311 -17.0556 5.68351
rclavicle -3.17559e-014 -1.59028e-015
rhumerus -39.3639 38.737 -98.3942
rradius 91.2254
rwrist -3.67884
rhand -17.0206 7.77869
rfingers 7.12502
rthumb 9.21549 -21.9999
lclavicle -3.17559e-014 -1.59028e-015
lhumerus -40.0305 -27.3954 104.032
lradius 88.5913
lwrist -3.75362
lhand -13.2999 37.3416
lfingers 7.12502
lthumb 12.8041 66.9289
rfemur -7.51573 6.29436 22.2754
rtibia 26.9688
rfoot -9.60586 1.99975
rtoes 3.26241
lfemur -4.02374 3.63399 -14.6562
ltibia 49.9709
lfoot -5.70233 -8.54304
ltoes -14.8687
629
root -0.230664 18.0103 2.99213 -5.08592 22.2387 -0.490022
lowerback 10.5322 -4.75785 -4.55151
upperback 0.796634 -6.74195 2.24694
thorax -4.24468 -3.24175 5.8082
lowerneck 5.21028 -22.5426 -16.9881
upperneck 15.4375 -36.1806 23.9795
head 12.0645 -17.0952 5.65132
rclavicle 1.01119e-013 5.56597e-015
rhumerus -39.1102 39.1113 -98.1293
rradius 91.2657
rwrist -3.50038
rhand -17.1147 7.67447
rfingers 7.12502
rthumb 9.12468 -22.1081
lclavicle 1.01119e-013 5.56597e-015
lhumerus -39.8715 -27.3235 104.149
lradius 88.5379
lwrist -3.57499
lhand -13.5756 37.1858
lfingers 7.12502
lthumb 12.5383 66.7896
rfemur -7.85516 6.3035 22.1885
rtibia 27.0842
rfoot -9.37798 1.94298
rtoes 3.54575
lfemur -3.04014 3.04655 -14.9429
ltibia 49.2293
lfoot -4.9642 -8.47167
ltoes -14.3719
630
root -0.250804 18.0103 2.91309 -5.07509 22.2514 -0.388404
lowerback 10.4351 -4.88869 -4.84067
upperback 0.820932 -6.94257 2.32993
thorax -4.09483 -3.34347 6.06443
lowerneck 5.15297 -22.68 -16.908
upperneck 15.9485 -36.4449 23.6709
head 12.2437 -17.1849 5.46622
rclavicle -1.42752e-014 2.8625e-014
rhumerus -38.7345 39.417 -97.7665
rradius 91.2987
rwrist -3.36344
rhand -17.3005 7.62353
rfingers 7.12502
rthumb 8.94542 -22.1668
lclavicle -1.42752e-014 2.8625e-014
lhumerus -39.7321 -27.4139 104.29
lradius 88.5459
lwrist -3.28714
lhand -13.7796 37.2149
lfingers 7.12502
lthumb 12.3416 66.8306
rfemur -8.18307 6.47059 22.0339
rtibia 27.1947
rfoot -9.1449 1.81812
rtoes 3.93489
lfemur -1.96187 2.5132 -15.3162
ltibia 48.3347
lfoot -4.55684 -8.78005
ltoes -14.8909
631
root -0.275238 18.0088 2.83267 -4.9379 22.0138 -0.294307
lowerback 10.1821 -4.93203 -5.10881
upperback 0.826076 -7.01854 2.39575
thorax -3.89832 -3.38617 6.26052
lowerneck 4.77147 -22.9158 -16.7919
upperneck 16.9171 -36.8603 23.0097
head 12.599 -17.2971 5.07858
rclavicle 4.5385e-014 -7.95139e-016
rhumerus -38.2879 39.4694 -97.3727
rradius 91.434
rwrist -3.06608
rhand -17.085 7.62756
rfingers 7.12502
rthumb 9.15336 -22.1538
lclavicle 4.5385e-014 -7.95139e-016
lhumerus -39.6269 -27.4543 104.376
lradius 88.5342
lwrist -3.19594
lhand -14.1669 36.9543
lfingers 7.12502
lthumb 11.9681 66.5921
rfemur -8.71133 6.73395 21.8935
rtibia 27.318
rfoot -8.86679 1.85335
rtoes 3.81796
lfemur -0.977138 2.25578 -15.6451
ltibia 47.31
lfoot -3.93709 -9.27497
ltoes -14.6363
632
root -0.294651 18.0117 2.74761 -4.64785 21.9774 -0.249713
lowerback 9.82333 -5.10721 -5.28576
upperback 0.756884 -7.25381 2.49929
thorax -3.7036 -3.50832 6.45318
lowerneck 4.62744 -23.0216 -16.6819
upperneck 17.5591 -37.0524 22.5256
head 12.778 -17.3479 4.84479
rclavicle 1.85739e-014 -1.98785e-015
rhumerus -38.0219 39.4189 -97.0301
rradius 91.7626
rwrist -2.61268
rhand -16.6638 7.62261
rfingers 7.12502
rthumb 9.5597 -22.1405
lclavicle 1.85739e-014 -1.98785e-015
lhumerus -39.4771 -27.3876 104.444
lradius 88.5041
lwrist -3.04345
lhand -14.614 36.8122
lfingers 7.12502
lthumb 11.537 66.4747
rfemur -9.42499 6.79869 21.7381
rtibia 27.4784
rfoot -8.63691 1.86148
rtoes 3.34794
lfemur -0.242562 1.77805 -15.9935
ltibia 46.1764
lfoot -2.83339 -9.58723
ltoes -12.9737
633
root -0.313771 18.0095 2.65891 -4.45917 22.1007 -0.166579
lowerback 9.5939 -5.29229 -5.48712
upperback 0.7329 -7.50952 2.58419
thorax -3.52716 -3.6408 6.65063
lowerneck 4.87888 -23.0828 -16.7484
upperneck 17.5451 -37.2141 22.6585
head 12.817 -17.4381 4.87792
rclavicle -3.24516e-014 3.18055e-015
rhumerus -37.8213 39.1249 -96.7474
rradius 92.0821
rwrist -2.35765
rhand -16.2481 7.63236
rfingers 7.12502
rthumb 9.96076 -22.112
lclavicle -3.24516e-014 3.18055e-015
lhumerus -39.3144 -27.4774 104.516
lradius 88.5787
lwrist -2.79353
lhand -14.9246 36.8518
lfingers 7.12502
lthumb 11.2375 66.5308
rfemur -10.0135 6.71998 21.5263
rtibia 27.6584
rfoot -8.42568 1.86657
rtoes 3.6117
lfemur 0.583781 1.2111 -16.3994
ltibia 44.9471
lfoot -1.77478 -9.83287
ltoes -12.4451
634
root -0.334462 17.9992 2.56377 -4.40809 22.1873 -0.0417981
lowerback 9.68493 -5.42101 -5.59562
upperback 0.6483 -7.70109 2.52957
thorax -3.63146 -3.72769 6.68758
lowerneck 5.14732 -23.1435 -16.6898
upperneck 17.811 -37.4125 22.632
head 12.9087 -17.5326 4.84638
rclavicle -5.53864e-014 1.11319e-014
rhumerus -37.661 38.8678 -96.6576
rradius 92.2048
rwrist -2.26919
rhand -16.1742 7.78366
rfingers 7.12502
rthumb 10.0321 -21.9572
lclavicle -5.53864e-014 1.11319e-014
lhumerus -39.4139 -27.7768 104.545
lradius 88.6983
lwrist -2.48351
lhand -15.0207 37.0995
lfingers 7.12502
lthumb 11.1448 66.7836
rfemur -10.4723 6.70867 21.2863
rtibia 27.8529
rfoot -8.20691 1.88214
rtoes 3.68378
lfemur 1.57356 0.704163 -16.8431
ltibia 43.6303
lfoot -0.809268 -9.95282
ltoes -12.6972
635
root -0.358583 17.9909 2.46769 -4.40398 22.1734 0.0182695
lowerback 9.88916 -5.5895 -5.60129
upperback 0.502075 -7.94313 2.43468
thorax -3.8753 -3.83269 6.65027
lowerneck 5.2584 -23.1559 -16.4491
upperneck 18.359 -37.4989 22.2659
head 12.9865 -17.5583 4.71039
rclavicle -1.75527e-013 3.45885e-014
rhumerus -37.6747 38.913 -96.8545
rradius 92.3202
rwrist -2.13355
rhand -16.2869 7.99752
rfingers 7.12502
rthumb 9.92342 -21.7486
lclavicle -1.75527e-013 3.45885e-014
lhumerus -39.6165 -27.899 104.483
lradius 88.8205
lwrist -2.03586
lhand -15.1894 37.1613
lfingers 7.12502
lthumb 10.982 66.8541
rfemur -10.9521 6.84407 21.1413
rtibia 28.1036
rfoot -7.94615 1.83792
rtoes 3.23157
lfemur 2.59018 0.239414 -17.2205
ltibia 42.195
lfoot 0.28144 -9.97273
ltoes -11.1911
636
root -0.380102 17.981 2.37047 -4.4526 22.0678 -0.0149027
lowerback 9.9689 -5.72549 -5.59124
upperback 0.46078 -8.12805 2.4332
thorax -3.93708 -3.92082 6.67363
lowerneck 5.10511 -23.2402 -16.1296
upperneck 18.8992 -37.5951 21.7108
head 13.0396 -17.5696 4.46981
rclavicle -2.06115e-014 -9.93923e-015
rhumerus -37.5684 38.9683 -96.8527
rradius 92.4961
rwrist -1.9658
rhand -16.4829 7.97518
rfingers 7.12502
rthumb 9.73427 -21.7799
lclavicle -2.06115e-014 -9.93923e-015
lhumerus -39.5522 -27.9433 104.379
lradius 88.9186
lwrist -1.75634
lhand -15.1746 37.1472
lfingers 7.12502
lthumb 10.9964 66.8392
rfemur -11.4609 6.92727 21.0847
rtibia 28.4038
rfoot -7.74772 1.92379
rtoes 2.85664
lfemur 3.64687 0.00325344 -17.476
ltibia 40.6484
lfoot 0.734859 -10.1894
ltoes -11.9849
637
root -0.400177 17.9647 2.269 -4.48446 22.0871 -0.0129654
lowerback 9.98369 -5.86747 -5.73527
upperback 0.519354 -8.32871 2.53349
thorax -3.81795 -4.02564 6.8722
lowerneck 4.89239 -23.3199 -15.9933
upperneck 19.2163 -37.7006 21.4248
head 13.1256 -17.5843 4.31156
rclavicle -1.53064e-014 9.14409e-015
rhumerus -37.1242 39.0416 -96.4923
rradius 92.642
rwrist -1.82247
rhand -16.6384 7.78414
rfingers 7.12502
rthumb 9.58421 -21.9779
lclavicle -1.53064e-014 9.14409e-015
lhumerus -39.1586 -28.0342 104.312
lradius 88.9514
lwrist -1.54426
lhand -15.6373 37.2136
lfingers 7.12502
lthumb 10.5501 66.9288
rfemur -11.9993 6.99999 20.9703
rtibia 28.7461
rfoot -7.51701 1.87346
rtoes 3.02192
lfemur 4.72879 -0.34879 -17.7884
ltibia 38.9582
lfoot 0.829828 -10.1695
ltoes -13.6904
638
root -0.424263 17.947 2.16457 -4.44268 22.0956 0.0185793
lowerback 10.0594 -5.98707 -5.94446
upperback 0.478182 -8.51332 2.61692
thorax -3.83172 -4.11247 7.10378
lowerneck 5.06217 -23.3158 -16.0026
upperneck 19.2977 -37.7654 21.4956
head 13.168 -17.6193 4.33961
rclavicle -9.57769e-014 9.93923e-015
rhumerus -36.8857 39.1112 -96.3036
rradius 92.8068
rwrist -1.7358
rhand -16.9575 7.43306
rfingers 7.12502
rthumb 9.27633 -22.3429
lclavicle -9.57769e-014 9.93923e-015
lhumerus -39.008 -28.1047 104.3
lradius 89.025
lwrist -1.31159
lhand -16.0145 36.9074
lfingers 7.12502
lthumb 10.1862 66.6408
rfemur -12.6452 7.15256 20.8261
rtibia 29.13
rfoot -7.334 1.77058
rtoes 4.01996
lfemur 5.75255 -0.683409 -18.1165
ltibia 37.1539
lfoot 0.341482 -9.83674
ltoes -16.1722
